<svg width="96" height="16" viewBox="0 0 96 16" fill="none" xmlns="http://www.w3.org/2000/svg">
<path d="M8 0L9.79611 5.52786H15.6085L10.9062 8.94427L12.7023 14.4721L8 11.0557L3.29772 14.4721L5.09383 8.94427L0.391548 5.52786H6.20389L8 0Z" fill="#C2A578"/>
<path d="M28 0L29.7961 5.52786H35.6085L30.9062 8.94427L32.7023 14.4721L28 11.0557L23.2977 14.4721L25.0938 8.94427L20.3915 5.52786H26.2039L28 0Z" fill="#C2A578"/>
<path d="M48 0L49.7961 5.52786H55.6085L50.9062 8.94427L52.7023 14.4721L48 11.0557L43.2977 14.4721L45.0938 8.94427L40.3915 5.52786H46.2039L48 0Z" fill="#C2A578"/>
<path d="M68 0L69.7961 5.52786H75.6085L70.9062 8.94427L72.7023 14.4721L68 11.0557L63.2977 14.4721L65.0938 8.94427L60.3915 5.52786H66.2039L68 0Z" fill="#C2A578"/>
<path d="M88 0L89.7961 5.52786H95.6085L90.9062 8.94427L92.7023 14.4721L88 11.0557L83.2977 14.4721L85.0938 8.94427L80.3915 5.52786H86.2039L88 0Z" fill="#C2A578"/>
</svg>
