<svg width="34" height="35" viewBox="0 0 34 35" fill="none" xmlns="http://www.w3.org/2000/svg">
<path d="M33.0304 24.4714L25.5928 21.2247C25.275 21.0868 24.9219 21.0577 24.5866 21.1419C24.2512 21.2261 23.9518 21.4189 23.7333 21.6914L20.4395 25.7904C15.2702 23.3079 11.1101 19.0705 8.67281 13.8053L12.6971 10.4504C12.9652 10.2283 13.1549 9.92332 13.2376 9.58158C13.3203 9.23985 13.2914 8.87999 13.1553 8.55647L9.96775 0.980837C9.81841 0.632093 9.55428 0.347356 9.2209 0.175722C8.88753 0.00408892 8.5058 -0.043682 8.14155 0.0406468L1.23518 1.664C0.883995 1.7466 0.570669 1.948 0.346338 2.23534C0.122007 2.52267 -8.08982e-05 2.87898 4.02177e-08 3.24609C4.02177e-08 20.5956 13.8061 34.6309 30.813 34.6309C31.1736 34.6311 31.5235 34.5068 31.8058 34.2783C32.088 34.0498 32.2858 33.7306 32.367 33.3728L33.9607 26.3382C34.043 25.9654 33.9951 25.5751 33.8253 25.2343C33.6555 24.8936 33.3744 24.6238 33.0304 24.4714Z" fill="#FBB034"/>
</svg>
