<svg width="89" height="28" viewBox="0 0 89 28" fill="none" xmlns="http://www.w3.org/2000/svg">
<mask id="path-1-outside-1_0_171" maskUnits="userSpaceOnUse" x="46.6904" y="8" width="42" height="13" fill="black">
<rect fill="white" x="46.6904" y="8" width="42" height="13"/>
<path d="M52.1285 20C51.4134 20 50.7621 19.9074 50.1744 19.7221C49.5867 19.527 49.092 19.2735 48.6904 18.9614L49.3957 17.7912C49.7483 18.0838 50.145 18.3227 50.5858 18.508C51.0265 18.6933 51.5408 18.7859 52.1285 18.7859C52.8337 18.7859 53.392 18.6396 53.8034 18.3471C54.2148 18.0545 54.4205 17.6596 54.4205 17.1622C54.4205 16.8794 54.3617 16.6308 54.2442 16.4162C54.1267 16.1919 53.8965 15.9774 53.5536 15.7726C53.2206 15.5581 52.726 15.3289 52.0697 15.0851C51.3645 14.8121 50.8013 14.539 50.3801 14.266C49.9589 13.9832 49.6552 13.6662 49.4691 13.3152C49.2928 12.9543 49.2047 12.5301 49.2047 12.0426C49.2047 11.555 49.3369 11.1161 49.6014 10.7261C49.8756 10.3262 50.2723 10.0093 50.7915 9.77527C51.3204 9.53147 51.9571 9.40957 52.7015 9.40957C53.3088 9.40957 53.8524 9.47296 54.3323 9.59973C54.8221 9.71675 55.2972 9.88741 55.7575 10.1117L55.2433 11.2965C54.9102 11.1015 54.5184 10.9406 54.0679 10.8138C53.6271 10.6773 53.1618 10.609 52.6721 10.609C52.0256 10.609 51.5163 10.7358 51.1441 10.9894C50.7719 11.2429 50.5858 11.5696 50.5858 11.9694C50.5858 12.223 50.6396 12.4473 50.7474 12.6423C50.8551 12.8373 51.0657 13.0275 51.3792 13.2128C51.7024 13.398 52.1823 13.6077 52.819 13.8418C53.583 14.1246 54.1854 14.422 54.6262 14.734C55.0768 15.0461 55.3951 15.3874 55.5812 15.758C55.7673 16.1188 55.8604 16.5332 55.8604 17.0013C55.8604 17.6352 55.6987 18.1764 55.3755 18.625C55.0621 19.0736 54.6213 19.4149 54.0532 19.6489C53.4949 19.883 52.8533 20 52.1285 20Z"/>
<path d="M60.6995 20C60.0628 20 59.4849 19.8391 58.9658 19.5173C58.4466 19.1955 58.0303 18.742 57.7169 18.1569C57.4133 17.5621 57.2614 16.8648 57.2614 16.0652C57.2614 15.3045 57.4133 14.6219 57.7169 14.0173C58.0303 13.4127 58.4564 12.9348 58.9951 12.5838C59.5437 12.223 60.1705 12.0426 60.8758 12.0426C61.3166 12.0426 61.7133 12.1206 62.0659 12.2766C62.4283 12.4229 62.7417 12.6082 63.0062 12.8324V12.2181H64.211V17.9814C64.211 18.352 64.2991 18.5957 64.4754 18.7128C64.6615 18.82 64.8623 18.8737 65.0778 18.8737L64.7987 19.8976C63.8584 19.8976 63.2902 19.5173 63.0943 18.7566C62.8691 19.0687 62.5605 19.3564 62.1687 19.6197C61.7867 19.8732 61.297 20 60.6995 20ZM60.9933 18.8298C61.3655 18.8298 61.7182 18.742 62.0512 18.5665C62.3842 18.3812 62.6634 18.152 62.8887 17.879V13.7979C62.6242 13.6126 62.3303 13.4663 62.0071 13.359C61.6937 13.242 61.3606 13.1835 61.008 13.1835C60.5379 13.1835 60.1216 13.3054 59.7592 13.5492C59.4065 13.7832 59.1274 14.1148 58.9217 14.5439C58.716 14.9632 58.6131 15.4557 58.6131 16.0213C58.6131 16.5674 58.716 17.055 58.9217 17.484C59.1274 17.9034 59.4114 18.2349 59.7738 18.4787C60.1363 18.7128 60.5428 18.8298 60.9933 18.8298Z"/>
<path d="M69.1651 20C68.7145 20 68.308 19.9171 67.9456 19.7513C67.5832 19.5758 67.2943 19.2979 67.0788 18.9176C66.8731 18.5372 66.7702 18.0448 66.7702 17.4402V9H68.0925V17.3085C68.0925 17.8351 68.2003 18.2252 68.4158 18.4787C68.6411 18.7323 68.9496 18.859 69.3414 18.859C69.5275 18.859 69.7087 18.8395 69.885 18.8005C70.0711 18.7518 70.2279 18.6981 70.3552 18.6396L70.6784 19.7074C70.5021 19.7855 70.2817 19.8537 70.0173 19.9122C69.7626 19.9707 69.4785 20 69.1651 20Z"/>
<path d="M74.9254 20C74.2005 20 73.5492 19.8342 72.9713 19.5027C72.3934 19.1613 71.9379 18.6933 71.6049 18.0984C71.2816 17.4938 71.12 16.8014 71.12 16.0213C71.12 15.2021 71.2865 14.4951 71.6195 13.9003C71.9526 13.3054 72.408 12.8471 72.9859 12.5253C73.5639 12.2035 74.2103 12.0426 74.9254 12.0426C75.6404 12.0426 76.282 12.2035 76.8501 12.5253C77.428 12.8471 77.8834 13.3054 78.2165 13.9003C78.5593 14.4854 78.7307 15.1826 78.7307 15.992C78.7307 16.8014 78.5642 17.5084 78.2312 18.113C77.8981 18.7079 77.4427 19.1711 76.8648 19.5027C76.2967 19.8342 75.6502 20 74.9254 20ZM74.9254 18.8298C75.6992 18.8298 76.3016 18.5714 76.7325 18.0545C77.1635 17.5279 77.379 16.8502 77.379 16.0213C77.379 15.5142 77.2713 15.051 77.0558 14.6316C76.8403 14.2026 76.5464 13.8613 76.1742 13.6077C75.8118 13.3444 75.3955 13.2128 74.9254 13.2128C74.1516 13.2128 73.5492 13.4663 73.1182 13.9734C72.6872 14.4805 72.4717 15.1534 72.4717 15.992C72.4717 16.4991 72.5795 16.9721 72.7949 17.4109C73.0104 17.84 73.2994 18.1862 73.6618 18.4495C74.034 18.703 74.4552 18.8298 74.9254 18.8298Z"/>
<path d="M81.2698 19.8245V12.2181H82.5481V13.4907C82.8223 13.0811 83.17 12.7398 83.5912 12.4668C84.0222 12.184 84.5315 12.0426 85.1192 12.0426C85.9812 12.0426 86.6228 12.301 87.044 12.8178C87.4749 13.3347 87.6904 14.0173 87.6904 14.8657V19.8245H86.3681V15.012C86.3681 14.4659 86.2359 14.027 85.9714 13.6955C85.7167 13.3639 85.3592 13.1981 84.8989 13.1981C84.4483 13.1981 84.0222 13.359 83.6206 13.6809C83.219 13.9929 82.8762 14.3635 82.5921 14.7926V19.8245H81.2698Z"/>
</mask>
<path d="M52.1285 20C51.4134 20 50.7621 19.9074 50.1744 19.7221C49.5867 19.527 49.092 19.2735 48.6904 18.9614L49.3957 17.7912C49.7483 18.0838 50.145 18.3227 50.5858 18.508C51.0265 18.6933 51.5408 18.7859 52.1285 18.7859C52.8337 18.7859 53.392 18.6396 53.8034 18.3471C54.2148 18.0545 54.4205 17.6596 54.4205 17.1622C54.4205 16.8794 54.3617 16.6308 54.2442 16.4162C54.1267 16.1919 53.8965 15.9774 53.5536 15.7726C53.2206 15.5581 52.726 15.3289 52.0697 15.0851C51.3645 14.8121 50.8013 14.539 50.3801 14.266C49.9589 13.9832 49.6552 13.6662 49.4691 13.3152C49.2928 12.9543 49.2047 12.5301 49.2047 12.0426C49.2047 11.555 49.3369 11.1161 49.6014 10.7261C49.8756 10.3262 50.2723 10.0093 50.7915 9.77527C51.3204 9.53147 51.9571 9.40957 52.7015 9.40957C53.3088 9.40957 53.8524 9.47296 54.3323 9.59973C54.8221 9.71675 55.2972 9.88741 55.7575 10.1117L55.2433 11.2965C54.9102 11.1015 54.5184 10.9406 54.0679 10.8138C53.6271 10.6773 53.1618 10.609 52.6721 10.609C52.0256 10.609 51.5163 10.7358 51.1441 10.9894C50.7719 11.2429 50.5858 11.5696 50.5858 11.9694C50.5858 12.223 50.6396 12.4473 50.7474 12.6423C50.8551 12.8373 51.0657 13.0275 51.3792 13.2128C51.7024 13.398 52.1823 13.6077 52.819 13.8418C53.583 14.1246 54.1854 14.422 54.6262 14.734C55.0768 15.0461 55.3951 15.3874 55.5812 15.758C55.7673 16.1188 55.8604 16.5332 55.8604 17.0013C55.8604 17.6352 55.6987 18.1764 55.3755 18.625C55.0621 19.0736 54.6213 19.4149 54.0532 19.6489C53.4949 19.883 52.8533 20 52.1285 20Z" fill="white"/>
<path d="M60.6995 20C60.0628 20 59.4849 19.8391 58.9658 19.5173C58.4466 19.1955 58.0303 18.742 57.7169 18.1569C57.4133 17.5621 57.2614 16.8648 57.2614 16.0652C57.2614 15.3045 57.4133 14.6219 57.7169 14.0173C58.0303 13.4127 58.4564 12.9348 58.9951 12.5838C59.5437 12.223 60.1705 12.0426 60.8758 12.0426C61.3166 12.0426 61.7133 12.1206 62.0659 12.2766C62.4283 12.4229 62.7417 12.6082 63.0062 12.8324V12.2181H64.211V17.9814C64.211 18.352 64.2991 18.5957 64.4754 18.7128C64.6615 18.82 64.8623 18.8737 65.0778 18.8737L64.7987 19.8976C63.8584 19.8976 63.2902 19.5173 63.0943 18.7566C62.8691 19.0687 62.5605 19.3564 62.1687 19.6197C61.7867 19.8732 61.297 20 60.6995 20ZM60.9933 18.8298C61.3655 18.8298 61.7182 18.742 62.0512 18.5665C62.3842 18.3812 62.6634 18.152 62.8887 17.879V13.7979C62.6242 13.6126 62.3303 13.4663 62.0071 13.359C61.6937 13.242 61.3606 13.1835 61.008 13.1835C60.5379 13.1835 60.1216 13.3054 59.7592 13.5492C59.4065 13.7832 59.1274 14.1148 58.9217 14.5439C58.716 14.9632 58.6131 15.4557 58.6131 16.0213C58.6131 16.5674 58.716 17.055 58.9217 17.484C59.1274 17.9034 59.4114 18.2349 59.7738 18.4787C60.1363 18.7128 60.5428 18.8298 60.9933 18.8298Z" fill="white"/>
<path d="M69.1651 20C68.7145 20 68.308 19.9171 67.9456 19.7513C67.5832 19.5758 67.2943 19.2979 67.0788 18.9176C66.8731 18.5372 66.7702 18.0448 66.7702 17.4402V9H68.0925V17.3085C68.0925 17.8351 68.2003 18.2252 68.4158 18.4787C68.6411 18.7323 68.9496 18.859 69.3414 18.859C69.5275 18.859 69.7087 18.8395 69.885 18.8005C70.0711 18.7518 70.2279 18.6981 70.3552 18.6396L70.6784 19.7074C70.5021 19.7855 70.2817 19.8537 70.0173 19.9122C69.7626 19.9707 69.4785 20 69.1651 20Z" fill="white"/>
<path d="M74.9254 20C74.2005 20 73.5492 19.8342 72.9713 19.5027C72.3934 19.1613 71.9379 18.6933 71.6049 18.0984C71.2816 17.4938 71.12 16.8014 71.12 16.0213C71.12 15.2021 71.2865 14.4951 71.6195 13.9003C71.9526 13.3054 72.408 12.8471 72.9859 12.5253C73.5639 12.2035 74.2103 12.0426 74.9254 12.0426C75.6404 12.0426 76.282 12.2035 76.8501 12.5253C77.428 12.8471 77.8834 13.3054 78.2165 13.9003C78.5593 14.4854 78.7307 15.1826 78.7307 15.992C78.7307 16.8014 78.5642 17.5084 78.2312 18.113C77.8981 18.7079 77.4427 19.1711 76.8648 19.5027C76.2967 19.8342 75.6502 20 74.9254 20ZM74.9254 18.8298C75.6992 18.8298 76.3016 18.5714 76.7325 18.0545C77.1635 17.5279 77.379 16.8502 77.379 16.0213C77.379 15.5142 77.2713 15.051 77.0558 14.6316C76.8403 14.2026 76.5464 13.8613 76.1742 13.6077C75.8118 13.3444 75.3955 13.2128 74.9254 13.2128C74.1516 13.2128 73.5492 13.4663 73.1182 13.9734C72.6872 14.4805 72.4717 15.1534 72.4717 15.992C72.4717 16.4991 72.5795 16.9721 72.7949 17.4109C73.0104 17.84 73.2994 18.1862 73.6618 18.4495C74.034 18.703 74.4552 18.8298 74.9254 18.8298Z" fill="white"/>
<path d="M81.2698 19.8245V12.2181H82.5481V13.4907C82.8223 13.0811 83.17 12.7398 83.5912 12.4668C84.0222 12.184 84.5315 12.0426 85.1192 12.0426C85.9812 12.0426 86.6228 12.301 87.044 12.8178C87.4749 13.3347 87.6904 14.0173 87.6904 14.8657V19.8245H86.3681V15.012C86.3681 14.4659 86.2359 14.027 85.9714 13.6955C85.7167 13.3639 85.3592 13.1981 84.8989 13.1981C84.4483 13.1981 84.0222 13.359 83.6206 13.6809C83.219 13.9929 82.8762 14.3635 82.5921 14.7926V19.8245H81.2698Z" fill="white"/>
<path d="M52.1285 20C51.4134 20 50.7621 19.9074 50.1744 19.7221C49.5867 19.527 49.092 19.2735 48.6904 18.9614L49.3957 17.7912C49.7483 18.0838 50.145 18.3227 50.5858 18.508C51.0265 18.6933 51.5408 18.7859 52.1285 18.7859C52.8337 18.7859 53.392 18.6396 53.8034 18.3471C54.2148 18.0545 54.4205 17.6596 54.4205 17.1622C54.4205 16.8794 54.3617 16.6308 54.2442 16.4162C54.1267 16.1919 53.8965 15.9774 53.5536 15.7726C53.2206 15.5581 52.726 15.3289 52.0697 15.0851C51.3645 14.8121 50.8013 14.539 50.3801 14.266C49.9589 13.9832 49.6552 13.6662 49.4691 13.3152C49.2928 12.9543 49.2047 12.5301 49.2047 12.0426C49.2047 11.555 49.3369 11.1161 49.6014 10.7261C49.8756 10.3262 50.2723 10.0093 50.7915 9.77527C51.3204 9.53147 51.9571 9.40957 52.7015 9.40957C53.3088 9.40957 53.8524 9.47296 54.3323 9.59973C54.8221 9.71675 55.2972 9.88741 55.7575 10.1117L55.2433 11.2965C54.9102 11.1015 54.5184 10.9406 54.0679 10.8138C53.6271 10.6773 53.1618 10.609 52.6721 10.609C52.0256 10.609 51.5163 10.7358 51.1441 10.9894C50.7719 11.2429 50.5858 11.5696 50.5858 11.9694C50.5858 12.223 50.6396 12.4473 50.7474 12.6423C50.8551 12.8373 51.0657 13.0275 51.3792 13.2128C51.7024 13.398 52.1823 13.6077 52.819 13.8418C53.583 14.1246 54.1854 14.422 54.6262 14.734C55.0768 15.0461 55.3951 15.3874 55.5812 15.758C55.7673 16.1188 55.8604 16.5332 55.8604 17.0013C55.8604 17.6352 55.6987 18.1764 55.3755 18.625C55.0621 19.0736 54.6213 19.4149 54.0532 19.6489C53.4949 19.883 52.8533 20 52.1285 20Z" stroke="#BDBDBD" stroke-width="2" mask="url(#path-1-outside-1_0_171)"/>
<path d="M60.6995 20C60.0628 20 59.4849 19.8391 58.9658 19.5173C58.4466 19.1955 58.0303 18.742 57.7169 18.1569C57.4133 17.5621 57.2614 16.8648 57.2614 16.0652C57.2614 15.3045 57.4133 14.6219 57.7169 14.0173C58.0303 13.4127 58.4564 12.9348 58.9951 12.5838C59.5437 12.223 60.1705 12.0426 60.8758 12.0426C61.3166 12.0426 61.7133 12.1206 62.0659 12.2766C62.4283 12.4229 62.7417 12.6082 63.0062 12.8324V12.2181H64.211V17.9814C64.211 18.352 64.2991 18.5957 64.4754 18.7128C64.6615 18.82 64.8623 18.8737 65.0778 18.8737L64.7987 19.8976C63.8584 19.8976 63.2902 19.5173 63.0943 18.7566C62.8691 19.0687 62.5605 19.3564 62.1687 19.6197C61.7867 19.8732 61.297 20 60.6995 20ZM60.9933 18.8298C61.3655 18.8298 61.7182 18.742 62.0512 18.5665C62.3842 18.3812 62.6634 18.152 62.8887 17.879V13.7979C62.6242 13.6126 62.3303 13.4663 62.0071 13.359C61.6937 13.242 61.3606 13.1835 61.008 13.1835C60.5379 13.1835 60.1216 13.3054 59.7592 13.5492C59.4065 13.7832 59.1274 14.1148 58.9217 14.5439C58.716 14.9632 58.6131 15.4557 58.6131 16.0213C58.6131 16.5674 58.716 17.055 58.9217 17.484C59.1274 17.9034 59.4114 18.2349 59.7738 18.4787C60.1363 18.7128 60.5428 18.8298 60.9933 18.8298Z" stroke="#BDBDBD" stroke-width="2" mask="url(#path-1-outside-1_0_171)"/>
<path d="M69.1651 20C68.7145 20 68.308 19.9171 67.9456 19.7513C67.5832 19.5758 67.2943 19.2979 67.0788 18.9176C66.8731 18.5372 66.7702 18.0448 66.7702 17.4402V9H68.0925V17.3085C68.0925 17.8351 68.2003 18.2252 68.4158 18.4787C68.6411 18.7323 68.9496 18.859 69.3414 18.859C69.5275 18.859 69.7087 18.8395 69.885 18.8005C70.0711 18.7518 70.2279 18.6981 70.3552 18.6396L70.6784 19.7074C70.5021 19.7855 70.2817 19.8537 70.0173 19.9122C69.7626 19.9707 69.4785 20 69.1651 20Z" stroke="#BDBDBD" stroke-width="2" mask="url(#path-1-outside-1_0_171)"/>
<path d="M74.9254 20C74.2005 20 73.5492 19.8342 72.9713 19.5027C72.3934 19.1613 71.9379 18.6933 71.6049 18.0984C71.2816 17.4938 71.12 16.8014 71.12 16.0213C71.12 15.2021 71.2865 14.4951 71.6195 13.9003C71.9526 13.3054 72.408 12.8471 72.9859 12.5253C73.5639 12.2035 74.2103 12.0426 74.9254 12.0426C75.6404 12.0426 76.282 12.2035 76.8501 12.5253C77.428 12.8471 77.8834 13.3054 78.2165 13.9003C78.5593 14.4854 78.7307 15.1826 78.7307 15.992C78.7307 16.8014 78.5642 17.5084 78.2312 18.113C77.8981 18.7079 77.4427 19.1711 76.8648 19.5027C76.2967 19.8342 75.6502 20 74.9254 20ZM74.9254 18.8298C75.6992 18.8298 76.3016 18.5714 76.7325 18.0545C77.1635 17.5279 77.379 16.8502 77.379 16.0213C77.379 15.5142 77.2713 15.051 77.0558 14.6316C76.8403 14.2026 76.5464 13.8613 76.1742 13.6077C75.8118 13.3444 75.3955 13.2128 74.9254 13.2128C74.1516 13.2128 73.5492 13.4663 73.1182 13.9734C72.6872 14.4805 72.4717 15.1534 72.4717 15.992C72.4717 16.4991 72.5795 16.9721 72.7949 17.4109C73.0104 17.84 73.2994 18.1862 73.6618 18.4495C74.034 18.703 74.4552 18.8298 74.9254 18.8298Z" stroke="#BDBDBD" stroke-width="2" mask="url(#path-1-outside-1_0_171)"/>
<path d="M81.2698 19.8245V12.2181H82.5481V13.4907C82.8223 13.0811 83.17 12.7398 83.5912 12.4668C84.0222 12.184 84.5315 12.0426 85.1192 12.0426C85.9812 12.0426 86.6228 12.301 87.044 12.8178C87.4749 13.3347 87.6904 14.0173 87.6904 14.8657V19.8245H86.3681V15.012C86.3681 14.4659 86.2359 14.027 85.9714 13.6955C85.7167 13.3639 85.3592 13.1981 84.8989 13.1981C84.4483 13.1981 84.0222 13.359 83.6206 13.6809C83.219 13.9929 82.8762 14.3635 82.5921 14.7926V19.8245H81.2698Z" stroke="#BDBDBD" stroke-width="2" mask="url(#path-1-outside-1_0_171)"/>
<g clip-path="url(#clip0_0_171)">
<path d="M40.0654 0.874998C40.0654 1.35825 40.4571 1.75 40.9404 1.75H41.8154C42.2987 1.75 42.6904 1.35825 42.6904 0.874998C42.6904 0.391751 42.2987 0 41.8154 0H40.9404C40.4571 0 40.0654 0.391751 40.0654 0.874998Z" fill="white"/>
<path d="M14.6904 28H18.941L17.7036 26.7625C17.3754 26.4344 16.9303 26.25 16.4662 26.25H14.6904C7.92493 26.25 2.44043 20.7655 2.44043 14C2.44043 7.2345 7.92493 1.75001 14.6904 1.75H28.6904C35.4559 1.75 40.9404 7.2345 40.9404 14C40.9404 20.7655 35.4559 26.25 28.6904 26.25H23.4533C22.7571 26.25 22.0894 25.9734 21.5971 25.4812L20.1474 24.0314C19.327 23.211 18.2141 22.75 17.0538 22.75H14.6904C9.85791 22.75 5.94043 18.8325 5.94043 14C5.94043 9.16748 9.85791 5.25 14.6904 5.25H28.6904C33.5229 5.25 37.4404 9.16748 37.4404 14C37.4404 18.8325 33.5229 22.75 28.6904 22.75H25.3277C24.6315 22.75 23.9638 22.4734 23.4715 21.9812L22.0217 20.5314C21.2013 19.711 20.0885 19.25 18.9282 19.25H14.6904C11.791 19.25 9.44043 16.8995 9.44043 14C9.44043 11.1005 11.791 8.75 14.6904 8.75H28.6904C31.5899 8.75 33.9404 11.1005 33.9404 14C33.9404 16.8641 31.6469 19.1926 28.7963 19.249L28.7957 19.25H27.5152C26.819 19.25 26.1513 18.9734 25.659 18.4812L24.2092 17.0314C23.5361 16.3582 22.666 15.927 21.7344 15.794L21.6904 15.75H14.6904C13.7239 15.75 12.9404 14.9665 12.9404 14C12.9404 13.0335 13.7239 12.25 14.6904 12.25H28.6904C29.6569 12.25 30.4404 13.0335 30.4404 14C30.4404 14.9665 29.6569 15.75 28.6904 15.75H25.1904L26.4279 16.9875C26.756 17.3156 27.2012 17.5 27.6653 17.5H28.6904C30.6234 17.5 32.1904 15.933 32.1904 14C32.1904 12.067 30.6234 10.5 28.6904 10.5H14.6904C12.7574 10.5 11.1904 12.067 11.1904 14C11.1904 15.933 12.7574 17.5 14.6904 17.5H21.1157C21.8119 17.5 22.4795 17.7766 22.9718 18.2688L24.4216 19.7186C25.2421 20.539 26.3549 21 27.5152 21H29.1279V20.9866C32.7901 20.7607 35.6904 17.719 35.6904 14C35.6904 10.134 32.5564 7 28.6904 7H14.6904C10.8245 7 7.69043 10.134 7.69043 14C7.69043 17.866 10.8245 21 14.6904 21H18.9282C19.6244 21 20.292 21.2766 20.7843 21.7688L22.2341 23.2186C23.0546 24.039 24.1674 24.5 25.3277 24.5H28.6904C34.4894 24.5 39.1904 19.799 39.1904 14C39.1904 8.20099 34.4894 3.5 28.6904 3.5H14.6904C8.89142 3.5 4.19043 8.20099 4.19043 14C4.19043 19.799 8.89142 24.5 14.6904 24.5H17.0538C17.75 24.5 18.4177 24.7766 18.91 25.2688L20.3597 26.7186C21.1802 27.539 22.293 28 23.4533 28H28.6904C36.4224 28 42.6904 21.732 42.6904 14C42.6904 6.26801 36.4224 -6.75951e-07 28.6904 0L14.6904 2.89285e-06C6.95844 3.5688e-06 0.690429 6.26802 0.69043 14C0.69043 21.732 6.95845 28 14.6904 28Z" fill="white"/>
</g>
<defs>
<clipPath id="clip0_0_171">
<rect width="42" height="28" fill="white" transform="translate(0.69043)"/>
</clipPath>
</defs>
</svg>
