<svg width="116" height="20" viewBox="0 0 116 20" fill="none" xmlns="http://www.w3.org/2000/svg">
<path d="M10 0.00628662L13.09 6.38244L20 7.41118L15 12.3715L16.18 19.3792L10 16.0689L3.82 19.3792L5 12.3715L0 7.41118L6.91 6.38244L10 0.00628662Z" fill="#FBB034"/>
<path d="M34 0.00628662L37.09 6.38244L44 7.41118L39 12.3715L40.18 19.3792L34 16.0689L27.82 19.3792L29 12.3715L24 7.41118L30.91 6.38244L34 0.00628662Z" fill="#FBB034"/>
<path d="M58 0.00628662L61.09 6.38244L68 7.41118L63 12.3715L64.18 19.3792L58 16.0689L51.82 19.3792L53 12.3715L48 7.41118L54.91 6.38244L58 0.00628662Z" fill="#FBB034"/>
<path d="M82 0.00628662L85.09 6.38244L92 7.41118L87 12.3715L88.18 19.3792L82 16.0689L75.82 19.3792L77 12.3715L72 7.41118L78.91 6.38244L82 0.00628662Z" fill="#CECECE"/>
<path d="M106 0.00628662L109.09 6.38244L116 7.41118L111 12.3715L112.18 19.3792L106 16.0689L99.82 19.3792L101 12.3715L96 7.41118L102.91 6.38244L106 0.00628662Z" fill="#CECECE"/>
</svg>
